<svg xmlns="http://www.w3.org/2000/svg" viewBox="0 0 900 760" role="img" aria-labelledby="t d" data-city-centre="Place du Molard" data-centre-lat="46.2034" data-centre-lon="6.14793" data-farthest-km="2.62" data-radius-km="3.7">
  <title id="t">Geneva transit and visitor map</title><desc id="d">North-up map centred on Place du Molard, with moving trams and a Lake Geneva passenger boat.</desc>
  <rect width="900" height="760" fill="#edf8ff"/>
  <path class="water" d="M900 30C755 45 650 105 572 210 530 267 509 314 500 345 538 363 580 354 622 320 704 254 792 226 900 226Z" fill="#6cb8e2" stroke="#1769aa" stroke-width="6" stroke-linejoin="round"/>
  <path class="water" d="M510 345C400 326 291 337 184 370 105 394 43 393-25 374" fill="none" stroke="#6cb8e2" stroke-width="44" stroke-linecap="round" stroke-linejoin="round"/>
  <path class="water" d="M920 570C724 540 569 514 430 500 322 489 253 435 205 380" fill="none" stroke="#8ac9e9" stroke-width="42" stroke-linecap="round" stroke-linejoin="round"/>
  <g class="water-marks" fill="none" stroke="#fff" stroke-width="4" opacity=".8"><path d="M696 154q22-14 44 0t44 0 44 0M638 218q22-14 44 0t44 0 44 0M71 374q20-12 40 0t40 0 40 0M626 529q20-12 40 0t40 0 40 0"/></g>
  <g fill="#0b4f80" font-family="Arial" font-size="18" font-weight="700"><text x="735" y="102">LAC LEMAN</text><text x="145" y="352">RHONE</text><text x="704" y="556">ARVE</text></g>
  <g class="roads" fill="none" stroke-linecap="round" stroke-linejoin="round">
    <g data-road="Rue de Lausanne"><path d="M286 78C305 155 323 236 342 315" stroke="#fff" stroke-width="15"/><path d="M286 78C305 155 323 236 342 315" stroke="#697f91" stroke-width="7"/><text x="248" y="174" fill="#0b3558" stroke="none" font-family="Arial" font-size="14" font-weight="700">RUE DE LAUSANNE</text></g>
    <g data-road="Rue de la Servette and Rue de la Corraterie"><path d="M305 188C326 254 343 316 370 359C397 398 426 415 462 425" stroke="#fff" stroke-width="15"/><path d="M305 188C326 254 343 316 370 359C397 398 426 415 462 425" stroke="#697f91" stroke-width="7"/><text x="243" y="246" fill="#0b3558" stroke="none" font-family="Arial" font-size="13" font-weight="700">RUE DE LA SERVETTE</text></g>
    <g data-road="Route de Chene"><path d="M460 425C552 432 651 445 790 463" stroke="#fff" stroke-width="15"/><path d="M460 425C552 432 651 445 790 463" stroke="#697f91" stroke-width="7"/><text x="606" y="426" fill="#0b3558" stroke="none" font-family="Arial" font-size="14" font-weight="700">ROUTE DE CHENE</text></g>
  </g>
  <g class="bridge" data-name="Ponts de l'Ile"><path d="M344 319C351 335 360 350 370 359" fill="none" stroke="#e6b84b" stroke-width="13" stroke-linecap="round"/><path d="M344 319C351 335 360 350 370 359" fill="none" stroke="#fff" stroke-width="5" stroke-dasharray="6 5"/><text x="278" y="343" fill="#0b3558" font-family="Arial" font-size="13" font-weight="700">PONTS DE L'ILE</text></g>
  <g class="tram" aria-label="Tram on Rue de Lausanne"><rect x="-13" y="-7" width="26" height="14" rx="2" fill="#fff" stroke="#1769aa" stroke-width="3"/><path d="M-6-7 0-14 6-7M-8 1h5m6 0h5" stroke="#1769aa" stroke-width="2"/><animateMotion dur="9s" repeatCount="indefinite" rotate="auto" path="M286 78C305 155 323 236 342 315"/></g>
  <g class="tram" aria-label="Tram across Ponts de l'Ile"><rect x="-13" y="-7" width="26" height="14" rx="2" fill="#fff" stroke="#1769aa" stroke-width="3"/><path d="M-6-7 0-14 6-7" stroke="#1769aa" stroke-width="2"/><animateMotion dur="11s" repeatCount="indefinite" rotate="auto" path="M305 188C326 254 343 316 370 359C397 398 426 415 462 425"/></g>
  <g class="tram" aria-label="Tram on Route de Chene"><rect x="-13" y="-7" width="26" height="14" rx="2" fill="#fff" stroke="#1769aa" stroke-width="3"/><path d="M-6-7 0-14 6-7" stroke="#1769aa" stroke-width="2"/><animateMotion dur="13s" repeatCount="indefinite" rotate="auto" path="M460 425C552 432 651 445 790 463"/></g>
  <g class="passenger-boat" aria-label="Lake Geneva passenger boat"><path d="M-18 0h36L10 12h-20Z" fill="#fff" stroke="#0b4f80" stroke-width="3"/><path d="M0 0v-18l15 18Z" fill="#e6b84b" stroke="#0b4f80" stroke-width="2"/><animateMotion dur="16s" repeatCount="indefinite" rotate="auto" path="M615 245C697 170 786 135 870 132"/></g>
  <g class="organization" data-name="United Nations" transform="translate(355 105)" fill="none" stroke="#0b4f80" stroke-width="3"><circle cx="0" cy="0" r="18" fill="#fff"/><path d="M-18 0h36M0-18v36M-13-12q13 12 26 0M-13 12q13-12 26 0"/><text x="26" y="5" fill="#0b3558" stroke="none" font-family="Arial" font-size="14" font-weight="700">UNITED NATIONS</text></g>
  <g class="landmark" data-name="Jet d'Eau" data-lat="46.2074" data-lon="6.1559" transform="translate(505 340)"><circle r="7" fill="#fff" stroke="#0b4f80" stroke-width="3"/><path d="M0-8Q9-31 18-8" fill="none" stroke="#1769aa" stroke-width="4"/><text x="18" y="-16" fill="#0b3558" font-family="Arial" font-size="14" font-weight="700">JET D'EAU</text></g>
  <g class="landmark" data-name="St Pierre Cathedral" data-lat="46.2012" data-lon="6.1485" transform="translate(454 402)"><circle r="7" fill="#fff" stroke="#0b4f80" stroke-width="3"/><path d="M9 0V-20h10v-9l6 9h9v-9l6 9h10V0" fill="none" stroke="#0b4f80" stroke-width="3"/><text x="10" y="19" fill="#0b3558" font-family="Arial" font-size="13" font-weight="700">ST PIERRE CATHEDRAL</text></g>
  <g class="landmark" data-name="Patek Philippe Museum" data-lat="46.1983" data-lon="6.1382" transform="translate(383 430)"><circle r="7" fill="#fff" stroke="#0b4f80" stroke-width="3"/><circle cx="-19" cy="0" r="12" fill="#fff" stroke="#d99b25" stroke-width="3"/><path d="M-19 0v-7m0 7 6 4" stroke="#0b4f80" stroke-width="2"/><text x="-120" y="25" fill="#0b3558" font-family="Arial" font-size="12" font-weight="700">PATEK PHILIPPE MUSEUM</text></g>
  <g class="landmark" data-name="Reformation Wall" data-lat="46.20025" data-lon="6.1457" transform="translate(435 411)"><circle r="7" fill="#fff" stroke="#0b4f80" stroke-width="3"/><path d="M-38 12h31v16h-31Zm5 0V4m8 8V2m8 10V5" fill="#fff" stroke="#0b4f80" stroke-width="3"/><text x="-15" y="52" fill="#0b3558" font-family="Arial" font-size="12" font-weight="700">REFORMATION WALL</text></g>
  <g class="landmark" data-name="Palais des Nations" data-lat="46.22651" data-lon="6.14084" transform="translate(401 151)"><circle r="7" fill="#fff" stroke="#0b4f80" stroke-width="3"/><path d="M10 0v-26h55V0M18-26v-8h39v8M20-17v14m12-14v14m12-14v14m12-14v14" fill="#fff" stroke="#0b4f80" stroke-width="3"/><text x="9" y="19" fill="#0b3558" font-family="Arial" font-size="13" font-weight="700">PALAIS DES NATIONS</text></g>
  <g transform="translate(450 380)" fill="#0b3558"><circle r="7"/><path d="M-14 0H14M0-14V14" stroke="#0b3558" stroke-width="2"/><text x="12" y="21" font-family="Arial" font-size="14" font-weight="700">PLACE DU MOLARD / CITY CENTRE</text></g>
  <g transform="translate(820 75)" fill="none" stroke="#0b3558" stroke-width="3"><path d="M0 30V0l-8 12M0 0l8 12"/><text x="0" y="48" text-anchor="middle" fill="#0b3558" stroke="none" font-family="Arial" font-size="16" font-weight="700">N</text></g><path d="M28 28h844v704H28Z" fill="none" stroke="#1769aa" stroke-width="5"/>
</svg>
