<svg xmlns="http://www.w3.org/2000/svg" viewBox="0 0 900 820" role="img" aria-labelledby="t d" data-city-centre="Place du Molard" data-centre-lat="46.2034" data-centre-lon="6.14793" data-farthest-km="2.62" data-radius-km="3.7">
  <title id="t">Geneva transit and visitor map</title><desc id="d">North-up map centred on Place du Molard, with moving trams and a Lake Geneva passenger boat.</desc>
  <defs><linearGradient id="land" x2="0" y2="1"><stop stop-color="#fbfdff"/><stop offset="1" stop-color="#dceefa"/></linearGradient><pattern id="decoGrid" width="28" height="28" patternUnits="userSpaceOnUse"><path d="M14 0 28 14 14 28 0 14ZM14 6 22 14 14 22 6 14Z" fill="none" stroke="#1769aa" stroke-width=".7" opacity=".1"/><circle cx="14" cy="14" r="1.2" fill="#65b4df" opacity=".14"/></pattern><pattern id="waterGeom" width="24" height="16" patternUnits="userSpaceOnUse"><rect width="24" height="16" fill="#69b6df"/><path d="M-6 9Q0 3 6 9T18 9T30 9M0 15 6 9M12 15l6-6" fill="none" stroke="#d9f3ff" stroke-width="1.4" opacity=".7"/></pattern><style>.water[fill="none"]{stroke:url(#waterGeom)}.water:not([fill="none"]){fill:url(#waterGeom)}.bridge>path:first-child{stroke:#3f86b8}</style><g id="corner"><path d="M0 92V0h92"/></g></defs>
  <style>.compass-rose{transform:translate(450px,769px) scale(.525)}.compass-cartouche{transform:translate(450px,769px) scale(.7)}.landmark{display:none}.place-labels text,.city-signature text{paint-order:stroke;stroke:#f7fcff;stroke-width:4px;stroke-linejoin:round}</style>
  <rect width="900" height="820" fill="url(#land)"/><rect x="24" y="24" width="852" height="772" fill="url(#decoGrid)"/>
  <g fill="none" stroke="#1769aa" opacity=".08"><path d="M450 380 70 75M450 380 830 75M450 380 70 685M450 380 830 685"/><path d="M450 56 774 380 450 704 126 380ZM450 92 738 380 450 668 162 380"/></g>
  <path class="water" d="M900 30C755 45 650 105 572 210 530 267 509 314 500 345 538 363 580 354 622 320 704 254 792 226 900 226Z" fill="#6cb8e2" stroke="#1769aa" stroke-width="6" stroke-linejoin="round"/>
  <path class="water" d="M510 345C400 326 291 337 184 370 105 394 43 393-25 374" fill="none" stroke="#6cb8e2" stroke-width="44" stroke-linecap="round" stroke-linejoin="round"/>
  <path class="water" d="M920 570C724 540 569 514 430 500 322 489 253 435 205 380" fill="none" stroke="#8ac9e9" stroke-width="42" stroke-linecap="round" stroke-linejoin="round"/>
  <g class="water-marks" fill="none" stroke="#fff" stroke-width="4" opacity=".8"><path d="M696 154q22-14 44 0t44 0 44 0M638 218q22-14 44 0t44 0 44 0M71 374q20-12 40 0t40 0 40 0M626 529q20-12 40 0t40 0 40 0"/></g>
  <g fill="#0b4f80" font-family="Arial" font-size="18" font-weight="700"><text x="735" y="102">LAC LEMAN</text><text x="145" y="352">RHONE</text><text x="704" y="556">ARVE</text></g>
  <g class="roads" fill="none" stroke-linecap="round" stroke-linejoin="round">
    <g data-road="Rue de Lausanne"><path d="M250 0C266 42 276 70 286 78C305 155 323 236 342 315" stroke="#fff" stroke-width="15"/><path d="M250 0C266 42 276 70 286 78C305 155 323 236 342 315" stroke="#697f91" stroke-width="7"/><text x="248" y="174" fill="#0b3558" stroke="none" font-family="Arial" font-size="14" font-weight="700">RUE DE LAUSANNE</text></g>
    <g data-road="Rue de la Servette and Rue de la Corraterie"><path d="M170 0C208 65 260 128 305 188C326 254 343 316 370 359C397 398 426 415 462 425" stroke="#fff" stroke-width="15"/><path d="M170 0C208 65 260 128 305 188C326 254 343 316 370 359C397 398 426 415 462 425" stroke="#697f91" stroke-width="7"/><text x="243" y="246" fill="#0b3558" stroke="none" font-family="Arial" font-size="13" font-weight="700">RUE DE LA SERVETTE</text></g>
    <g data-road="Route de Chene"><path d="M460 425C552 432 651 445 790 463C832 468 870 474 900 480" stroke="#fff" stroke-width="15"/><path d="M460 425C552 432 651 445 790 463C832 468 870 474 900 480" stroke="#697f91" stroke-width="7"/><text x="606" y="426" fill="#0b3558" stroke="none" font-family="Arial" font-size="14" font-weight="700">ROUTE DE CHENE</text></g>
    <g data-road="Quai Wilson and east lake highway"><path d="M342 315C420 270 495 220 560 165C650 88 760 40 900 16" stroke="#fff" stroke-width="15"/><path d="M342 315C420 270 495 220 560 165C650 88 760 40 900 16" stroke="#697f91" stroke-width="7"/><text x="548" y="146" fill="#0b3558" stroke="none" font-family="Arial" font-size="13" font-weight="700">QUAI WILSON - EAST LAKE HIGHWAY</text></g>
  </g>
  <g class="bridge" data-name="Ponts de l'Ile"><path d="M344 319C351 335 360 350 370 359" fill="none" stroke="#3f86b8" stroke-width="13" stroke-linecap="round"/><path d="M344 319C351 335 360 350 370 359" fill="none" stroke="#fff" stroke-width="5" stroke-dasharray="6 5"/><text x="278" y="343" fill="#0b3558" font-family="Arial" font-size="13" font-weight="700">PONTS DE L'ILE</text></g>
  <g class="traffic-car" aria-label="Animated road car">
    <path d="M-15-7H7l8 7v8h-30Z" fill="#fff" stroke="#0b4f80" stroke-width="2.5"/>
    <path d="M-8-5H5l5 5H-8Z" fill="#8ac9e9"/>
    <circle cx="-8" cy="9" r="3.5" fill="#0b4f80"/><circle cx="9" cy="9" r="3.5" fill="#0b4f80"/>
    <animateMotion id="genevaTrip1" begin="0s;genevaTrip3.end" dur="16s" rotate="auto" path="M250 0C266 42 276 70 286 78C305 155 323 236 342 315C343 330 352 346 370 359C397 398 426 415 462 425C552 432 651 445 790 463C832 468 870 474 900 480"/>
    <animateMotion id="genevaTrip2" begin="genevaTrip1.end" dur="16s" rotate="auto" path="M170 0C208 65 260 128 305 188C326 254 343 316 370 359C360 345 351 330 342 315C420 270 495 220 560 165C650 88 760 40 900 16"/>
    <animateMotion id="genevaTrip3" begin="genevaTrip2.end" dur="16s" rotate="auto" path="M900 480C870 474 832 468 790 463C651 445 552 432 460 425C426 415 397 398 370 359C351 335 344 319 342 315C323 236 305 155 286 78C276 70 266 42 250 0"/>
  </g>
  <g class="passenger-boat" aria-label="Lake Geneva passenger boat"><path d="M-18 0h36L10 12h-20Z" fill="#fff" stroke="#0b4f80" stroke-width="3"/><path d="M0 0v-18l15 18Z" fill="#e6b84b" stroke="#0b4f80" stroke-width="2"/><animateMotion dur="16s" repeatCount="indefinite" rotate="auto" path="M615 245C697 170 786 135 870 132"/></g>
  <g class="organization" data-name="United Nations" transform="translate(355 105)" fill="none" stroke="#0b4f80" stroke-width="3"><circle cx="0" cy="0" r="18" fill="#fff"/><path d="M-18 0h36M0-18v36M-13-12q13 12 26 0M-13 12q13-12 26 0"/><text x="26" y="5" fill="#0b3558" stroke="none" font-family="Arial" font-size="14" font-weight="700">UNITED NATIONS</text></g>
  <g class="landmark" data-name="Jet d'Eau" data-lat="46.2074" data-lon="6.1559" transform="translate(505 340)"><circle r="7" fill="#fff" stroke="#0b4f80" stroke-width="3"/><path d="M0-8Q9-31 18-8" fill="none" stroke="#1769aa" stroke-width="4"/><text x="18" y="-16" fill="#0b3558" font-family="Arial" font-size="14" font-weight="700">JET D'EAU</text></g>
  <g class="landmark" data-name="St Pierre Cathedral" data-lat="46.2012" data-lon="6.1485" transform="translate(454 402)"><circle r="7" fill="#fff" stroke="#0b4f80" stroke-width="3"/><path d="M9 0V-20h10v-9l6 9h9v-9l6 9h10V0" fill="none" stroke="#0b4f80" stroke-width="3"/><text x="10" y="19" fill="#0b3558" font-family="Arial" font-size="13" font-weight="700">ST PIERRE CATHEDRAL</text></g>
  <g class="landmark" data-name="Patek Philippe Museum" data-lat="46.1983" data-lon="6.1382" transform="translate(383 430)"><circle r="7" fill="#fff" stroke="#0b4f80" stroke-width="3"/><circle cx="-19" cy="0" r="12" fill="#fff" stroke="#d99b25" stroke-width="3"/><path d="M-19 0v-7m0 7 6 4" stroke="#0b4f80" stroke-width="2"/><text x="-120" y="25" fill="#0b3558" font-family="Arial" font-size="12" font-weight="700">PATEK PHILIPPE MUSEUM</text></g>
  <g class="landmark" data-name="Reformation Wall" data-lat="46.20025" data-lon="6.1457" transform="translate(435 411)"><circle r="7" fill="#fff" stroke="#0b4f80" stroke-width="3"/><path d="M-38 12h31v16h-31Zm5 0V4m8 8V2m8 10V5" fill="#fff" stroke="#0b4f80" stroke-width="3"/><text x="-15" y="52" fill="#0b3558" font-family="Arial" font-size="12" font-weight="700">REFORMATION WALL</text></g>
  <g class="landmark" data-name="Palais des Nations" data-lat="46.22651" data-lon="6.14084" transform="translate(401 151)"><circle r="7" fill="#fff" stroke="#0b4f80" stroke-width="3"/><path d="M10 0v-26h55V0M18-26v-8h39v8M20-17v14m12-14v14m12-14v14m12-14v14" fill="#fff" stroke="#0b4f80" stroke-width="3"/><text x="9" y="19" fill="#0b3558" font-family="Arial" font-size="13" font-weight="700">PALAIS DES NATIONS</text></g>
  <g class="landmark" data-name="Bains des Paquis" data-lat="46.2101" data-lon="6.1535" transform="translate(500 300)"><circle r="7" fill="#fff" stroke="#0b4f80" stroke-width="3"/><path d="M10 0h48M17-7q8-12 16 0t16 0M18-20h31" fill="none" stroke="#0b4f80" stroke-width="3"/><text x="15" y="-28" fill="#0b3558" font-family="Arial" font-size="12" font-weight="700">BAINS DES PAQUIS</text></g>
  <g class="landmark" data-name="Victoria Hall" data-lat="46.2011" data-lon="6.1422" transform="translate(350 395)"><circle r="7" fill="#fff" stroke="#0b4f80" stroke-width="3"/><path d="M-66 0v-24h48V0M-71-24h58l-29-15ZM-57-16v13m12-13v13m12-13v13" fill="#fff" stroke="#0b4f80" stroke-width="3"/><text x="-74" y="22" fill="#0b3558" font-family="Arial" font-size="12" font-weight="700">VICTORIA HALL</text></g>
  <g class="landmark" data-name="Conservatory and Botanical Garden" data-lat="46.2274" data-lon="6.1466" transform="translate(300 130)"><circle r="7" fill="#fff" stroke="#0b4f80" stroke-width="3"/><path d="M12 0c5-24 28-32 38-19-2 17-17 25-38 19Zm8-5 20-14M12 0v-22" fill="#fff" stroke="#0b4f80" stroke-width="3"/><text x="15" y="22" fill="#0b3558" font-family="Arial" font-size="11" font-weight="700">BOTANICAL GARDEN</text></g>
  <g transform="translate(450 380)" fill="#0b3558"><circle r="7"/><path d="M-14 0H14M0-14V14" stroke="#0b3558" stroke-width="2"/><text x="12" y="21" font-family="Arial" font-size="14" font-weight="700">PLACE DU MOLARD / CITY CENTRE</text></g>
  <g class="compass-rose" transform="translate(450 722) scale(.75)" stroke-linejoin="miter"><circle r="44" fill="#f7fcff" fill-opacity=".82" stroke="#1769aa" stroke-width="3"/><circle r="36" fill="none" stroke="#65b4df" stroke-width="2"/><circle r="15" fill="#fff" stroke="#0b4f80" stroke-width="2"/><g fill="#1769aa" stroke="#0b4f80" stroke-width="1.5"><path d="M0-41 8-14 0-20-8-14Z"/><path d="M41 0 14 8 20 0 14-8Z"/><path d="M0 41-8 14 0 20 8 14Z"/><path d="M-41 0-14-8-20 0-14 8Z"/></g><g fill="#8ac9e9" stroke="#1769aa" stroke-width="1"><path d="m27-27-5 15-5-10Z"/><path d="m27 27-15-5 10-5Z"/><path d="m-27 27 5-15 5 10Z"/><path d="m-27-27 15 5-10 5Z"/></g><path d="M0-13 9 9 0 5-9 9Z" fill="#0b4f80"/><g fill="none" stroke="#1769aa" stroke-width="2"><path d="M-18-47h36M-18 47h36M-47-18v36M47-18v36"/><path d="M-8-50h16M-8 50h16"/></g><text x="0" y="-53" text-anchor="middle" fill="#0b3558" stroke="none" font-family="Georgia,serif" font-size="16" font-weight="700">N</text></g><g class="deco-frame" fill="none" stroke="#1769aa"><path d="M18 112V18h112M770 18h112v94M882 648v94H770M130 742H18v-94" stroke-width="8"/><use href="#corner" transform="translate(36 36)"/><use href="#corner" transform="translate(864 36) scale(-1 1)"/><use href="#corner" transform="translate(36 724) scale(1 -1)"/><use href="#corner" transform="translate(864 724) scale(-1 -1)"/></g>
  <g class="compass-cartouche" transform="translate(450 769)" fill="none" stroke="#1769aa" stroke-linejoin="miter"><path d="M-68-18v-22h20l9-9h78l9 9h20v22M68 18v22H48l-9 9h-78l-9-9h-20V18" stroke-width="3"/><path d="M-58-28h18l7-7h66l7 7h18M-58 28h18l7 7h66l7-7h18M-72-8h14M58-8h14M-72 8h14M58 8h14" stroke="#65b4df" stroke-width="2"/></g>
  <g class="place-labels" fill="#0b3558" font-family="Arial" font-size="13" font-weight="700"><text x="120" y="118">BOTANICAL GARDEN</text><text x="470" y="130">PALAIS DES NATIONS</text><text x="630" y="250">BAINS DES PAQUIS</text><text x="185" y="410">VICTORIA HALL</text><text x="170" y="475">PATEK PHILIPPE MUSEUM</text><text x="390" y="505">REFORMATION WALL</text><text x="545" y="600">ST PIERRE CATHEDRAL</text></g>
  <g class="city-signature" transform="translate(700 315)" fill="none" stroke="#1769aa" stroke-width="4"><path d="M0 12Q12-34 24 12M-8 12h40"/><path d="M5 3q7-8 14 0" stroke="#65b4df" stroke-width="2"/><text x="40" y="4" fill="#0b3558" stroke="none" font-family="Arial" font-size="14" font-weight="700">JET D'EAU</text><text x="40" y="22" fill="#1769aa" stroke="none" font-family="Arial" font-size="11" font-weight="700">GENEVA'S WATER JET</text></g>
</svg>
