<svg xmlns="http://www.w3.org/2000/svg" viewBox="0 0 64 64">
  <rect width="64" height="64" fill="#fff0f8"/><path d="M14 28c0-8 7-13 14-10 5-9 20-5 19 5 7 0 10 5 8 10H13Z" fill="#fff" stroke="#d24f9b" stroke-width="4"/><g fill="#d24f9b"><path d="M20 37c-5 7-4 11 0 13 4-2 5-6 0-13Z"><animateTransform attributeName="transform" type="translate" values="0 -2;0 5;0 -2" dur="2.3s" repeatCount="indefinite"/></path><path d="M34 37c-5 7-4 11 0 13 4-2 5-6 0-13Z"><animateTransform attributeName="transform" type="translate" values="0 4;0 -3;0 4" dur="3s" repeatCount="indefinite"/></path><path d="M47 37c-5 7-4 11 0 13 4-2 5-6 0-13Z"/></g><path d="M4 4h56v56H4Z" fill="none" stroke="#1769aa" stroke-width="3"/>
</svg>
