<svg xmlns="http://www.w3.org/2000/svg" viewBox="0 0 64 64"><rect width="64" height="64" fill="#eaf8ff"/><g fill="none" stroke="#1769aa" opacity=".16"><path d="M32 6 58 32 32 58 6 32Z"/><path d="M7 20V7h13m24 0h13v13M57 44v13H44M20 57H7V44"/></g><path d="M10 30 32 11l22 19v25H10Z" fill="#fff" stroke="#16a5d8" stroke-width="4"/><rect x="25" y="37" width="14" height="18" fill="#b8eaff"/><rect x="15" y="31" width="9" height="9" fill="#e6b84b"><animate attributeName="opacity" values=".45;1;.45" dur="4.5s" repeatCount="indefinite"/></rect><path d="M4 16V4h12m32 0h12v12M60 48v12H48M16 60H4V48" fill="none" stroke="#1769aa" stroke-width="3"/><path d="M22 4h20M22 60h20" stroke="#d6aa43" stroke-width="2"/><path d="M32 1l4 4-4 4-4-4Z" fill="#1769aa"/></svg>
