<svg xmlns="http://www.w3.org/2000/svg" viewBox="0 0 64 64"><rect width="64" height="64" fill="#edf3ff"/><g fill="none" stroke="#1769aa" opacity=".16"><path d="M32 6 58 32 32 58 6 32Z"/><path d="M7 20V7h13m24 0h13v13M57 44v13H44M20 57H7V44"/></g><path d="M8 54V31l15 8V28l15 9V17h11v37Z" fill="#fff" stroke="#285fd1" stroke-width="4"/><g fill="#9abaff"><circle cx="44" cy="11" r="5"><animate attributeName="cy" values="15;5;15" dur="4s" repeatCount="indefinite"/><animate attributeName="opacity" values=".9;.2;.9" dur="4s" repeatCount="indefinite"/></circle><circle cx="52" cy="7" r="4"><animate attributeName="cy" values="12;1;12" dur="5.5s" repeatCount="indefinite"/></circle></g><path d="M4 16V4h12m32 0h12v12M60 48v12H48M16 60H4V48" fill="none" stroke="#1769aa" stroke-width="3"/><path d="M22 4h20M22 60h20" stroke="#d6aa43" stroke-width="2"/><path d="M32 1l4 4-4 4-4-4Z" fill="#1769aa"/></svg>
